<?xml version="1.0" standalone="no"?>
<!DOCTYPE svg PUBLIC "-//W3C//DTD SVG 20010904//EN"
 "http://www.w3.org/TR/2001/REC-SVG-20010904/DTD/svg10.dtd">
<svg version="1.0" xmlns="http://www.w3.org/2000/svg"
 width="1024.000000pt" height="1024.000000pt" viewBox="0 0 1024.000000 1024.000000"
 preserveAspectRatio="xMidYMid meet">

<g transform="translate(0.000000,1024.000000) scale(0.100000,-0.100000)"
fill="#000000" stroke="none">
<path d="M0 5120 l0 -5120 5120 0 5120 0 0 5120 0 5120 -5120 0 -5120 0 0
-5120z m5404 4658 c3 -13 12 -174 21 -358 9 -184 24 -506 35 -715 11 -209 23
-440 26 -512 6 -118 9 -133 25 -133 38 0 270 -51 384 -84 622 -182 1159 -580
1527 -1131 166 -249 304 -580 367 -881 51 -237 64 -395 58 -669 -8 -306 -34
-494 -102 -729 -144 -496 -466 -978 -871 -1305 l-92 -73 236 -322 c129 -176
284 -387 343 -467 60 -81 109 -149 109 -152 0 -6 -703 -483 -708 -480 -4 2
-153 254 -434 738 -100 171 -182 311 -183 313 -1 1 -27 -9 -58 -23 -137 -60
-455 -155 -521 -155 l-26 0 5 -207 c9 -319 25 -1378 25 -1582 l0 -181 -461 0
-461 0 6 222 c4 123 11 426 16 673 5 248 12 590 16 760 l7 311 -109 23 c-116
24 -370 104 -444 140 -34 16 -46 18 -52 9 -4 -7 -142 -242 -306 -521 -164
-279 -303 -512 -308 -517 -6 -6 -144 80 -364 227 -195 129 -356 237 -358 238
-2 2 64 94 145 206 356 487 517 705 535 725 19 21 19 21 -74 95 -116 91 -292
267 -381 379 -297 373 -479 785 -567 1280 -28 156 -39 545 -20 728 47 470 224
935 503 1321 337 467 792 799 1351 985 110 37 328 90 422 102 l51 6 7 92 c9
132 86 1564 86 1609 l0 37 295 0 295 0 4 -22z"/>
<path d="M4925 7519 c-430 -39 -849 -206 -1170 -464 -661 -531 -948 -1369
-755 -2202 50 -214 176 -505 298 -688 348 -520 887 -865 1503 -962 157 -24
471 -24 624 0 982 159 1737 935 1850 1902 119 1020 -497 1991 -1466 2309 -282
93 -605 131 -884 105z m519 -479 c523 -103 964 -437 1196 -905 112 -226 161
-405 181 -657 26 -350 -64 -719 -251 -1023 -243 -396 -657 -686 -1122 -786
-121 -26 -398 -36 -535 -20 -650 81 -1212 537 -1418 1153 -146 439 -115 917
87 1323 173 348 435 605 791 775 179 86 365 138 587 164 93 11 379 -3 484 -24z"/>
<path d="M4886 6604 c-510 -92 -922 -504 -1022 -1022 -22 -113 -22 -316 0
-442 83 -469 420 -853 876 -998 141 -44 228 -57 390 -56 351 3 652 134 903
393 331 342 439 812 290 1266 -146 446 -533 782 -992 859 -116 20 -336 20
-445 0z m422 -639 c173 -55 313 -182 391 -357 41 -90 55 -160 54 -263 -1 -272
-168 -505 -431 -603 -91 -34 -257 -42 -352 -17 -296 77 -505 358 -487 655 19
307 253 568 552 614 63 9 196 -5 273 -29z"/>
</g>
</svg>
